  0
SECTION
  2
HEADER
  9
$ACADVER
  1
AC1014
  9
$HANDSEED
  5
FFFF
  9
$MEASUREMENT
 70
     1
  0
ENDSEC
  0
SECTION
  2
TABLES
  0
TABLE
  2
VPORT
  5
8
330
0
100
AcDbSymbolTable
 70
     4
  0
VPORT
  5
2E
330
8
100
AcDbSymbolTableRecord
100
AcDbViewportTableRecord
  2
*ACTIVE
 70
     0
 10
0.0
 20
0.0
 11
1.0
 21
1.0
 12
210.0
 22
148.5
 13
0.0
 23
0.0
 14
10.0
 24
10.0
 15
10.0
 25
10.0
 16
0.0
 26
0.0
 36
1.0
 17
0.0
 27
0.0
 37
0.0
 40
341.0
 41
1.24
 42
50.0
 43
0.0
 44
0.0
 50
0.0
 51
0.0
 71
     0
 72
   100
 73
     1
 74
     3
 75
     0
 76
     0
 77
     0
 78
     0
  0
ENDTAB
  0
TABLE
  2
LTYPE
  5
5
330
0
100
AcDbSymbolTable
 70
     1
  0
LTYPE
  5
14
330
5
100
AcDbSymbolTableRecord
100
AcDbLinetypeTableRecord
  2
BYBLOCK
 70
     0
  3

 72
    65
 73
     0
 40
0.0
  0
LTYPE
  5
15
330
5
100
AcDbSymbolTableRecord
100
AcDbLinetypeTableRecord
  2
BYLAYER
 70
     0
  3

 72
    65
 73
     0
 40
0.0
  0
LTYPE
  5
16
330
5
100
AcDbSymbolTableRecord
100
AcDbLinetypeTableRecord
  2
CONTINUOUS
 70
     0
  3
Solid line
 72
    65
 73
     0
 40
0.0
  0
ENDTAB
  0
TABLE
  2
LAYER
  5
2
100
AcDbSymbolTable
 70
3
  0
LAYER
  5
50
100
AcDbSymbolTableRecord
100
AcDbLayerTableRecord
  2
0
 70
0
  6
CONTINUOUS
  0
LAYER
  5
51
100
AcDbSymbolTableRecord
100
AcDbLayerTableRecord
  2
Cut
 70
0
  6
CONTINUOUS
  0
LAYER
  5
52
100
AcDbSymbolTableRecord
100
AcDbLayerTableRecord
  2
Outline
 70
0
  6
CONTINUOUS
  0
ENDTAB
  0
TABLE
  2
STYLE
  5
3
330
0
100
AcDbSymbolTable
 70
     1
  0
STYLE
  5
11
330
3
100
AcDbSymbolTableRecord
100
AcDbTextStyleTableRecord
  2
STANDARD
 70
     0
 40
0.0
 41
1.0
 50
0.0
 71
     0
 42
2.5
  3
txt
  4

  0
ENDTAB
  0
TABLE
  2
VIEW
  5
6
330
0
100
AcDbSymbolTable
 70
     0
  0
ENDTAB
  0
TABLE
  2
UCS
  5
7
330
0
100
AcDbSymbolTable
 70
     0
  0
ENDTAB
  0
TABLE
  2
APPID
  5
9
330
0
100
AcDbSymbolTable
 70
     2
  0
APPID
  5
12
330
9
100
AcDbSymbolTableRecord
100
AcDbRegAppTableRecord
  2
ACAD
 70
     0
  0
ENDTAB
  0
TABLE
  2
DIMSTYLE
  5
A
330
0
100
AcDbSymbolTable
 70
     1
  0
DIMSTYLE
105
27
330
A
100
AcDbSymbolTableRecord
100
AcDbDimStyleTableRecord
  2
ISO-25
 70
     0
  3

  4

  5

  6

  7

 40
1.0
 41
2.5
 42
0.625
 43
3.75
 44
1.25
 45
0.0
 46
0.0
 47
0.0
 48
0.0
140
2.5
141
2.5
142
0.0
143
0.03937007874016
144
1.0
145
0.0
146
1.0
147
0.625
 71
     0
 72
     0
 73
     0
 74
     0
 75
     0
 76
     0
 77
     1
 78
     8
170
     0
171
     3
172
     1
173
     0
174
     0
175
     0
176
     0
177
     0
178
     0
270
     2
271
     2
272
     2
273
     2
274
     3
340
11
275
     0
280
     0
281
     0
282
     0
283
     0
284
     8
285
     0
286
     0
287
     3
288
     0
  0
ENDTAB
  0
TABLE
  2
BLOCK_RECORD
  5
1
330
0
100
AcDbSymbolTable
 70
     1
  0
BLOCK_RECORD
  5
1F
330
1
100
AcDbSymbolTableRecord
100
AcDbBlockTableRecord
  2
*MODEL_SPACE
  0
BLOCK_RECORD
  5
1B
330
1
100
AcDbSymbolTableRecord
100
AcDbBlockTableRecord
  2
*PAPER_SPACE
  0
ENDTAB
  0
ENDSEC
  0
SECTION
  2
BLOCKS
  0
BLOCK
  5
20
330
1F
100
AcDbEntity
  8
0
100
AcDbBlockBegin
  2
*MODEL_SPACE
 70
     0
 10
0.0
 20
0.0
 30
0.0
  3
*MODEL_SPACE
  1

  0
ENDBLK
  5
21
330
1F
100
AcDbEntity
  8
0
100
AcDbBlockEnd
  0
BLOCK
  5
1C
330
1B
100
AcDbEntity
 67
     1
  8
0
100
AcDbBlockBegin
  2
*PAPER_SPACE
  1

  0
ENDBLK
  5
1D
330
1B
100
AcDbEntity
 67
     1
  8
0
100
AcDbBlockEnd
  0
ENDSEC
  0
SECTION
  2
ENTITIES
  0
LWPOLYLINE
  5
100
100
AcDbEntity
  8
Cut
 62
7
100
AcDbPolyline
 90
5
 70
1
 10
10.072166
 20
44.927840
 30
0.0
 10
59.927831
 20
44.927840
 30
0.0
 10
59.927831
 20
15.072172
 30
0.0
 10
10.072166
 20
15.072172
 30
0.0
 10
10.072166
 20
44.927840
 30
0.0
  0
LWPOLYLINE
  5
101
100
AcDbEntity
  8
Cut
 62
7
100
AcDbPolyline
 90
4
 70
0
 10
32.394438
 20
106.789938
 30
0.0
 10
31.500798
 20
78.193470
 30
0.0
 10
83.108487
 20
77.299830
 30
0.0
 10
117.066794
 20
103.662199
 30
0.0
  0
LWPOLYLINE
  5
102
100
AcDbEntity
  8
Outline
 62
7
100
AcDbPolyline
 90
5
 70
1
 10
3.127739
 20
124.662733
 30
0.0
 10
138.067324
 20
124.662733
 30
0.0
 10
138.067324
 20
8.266169
 30
0.0
 10
3.127739
 20
8.266169
 30
0.0
 10
3.127739
 20
124.662733
 30
0.0
  0
SPLINE
  5
103
100
AcDbEntity
  8
Outline
 62
7
100
AcDbSpline
 70
8
 71
3
 72
8
 73
4
 74
0
 40
0
 40
0
 40
0
 40
0
 40
1
 40
1
 40
1
 40
1
 10
42.547822
 20
62.083556
 30
0.0
 10
41.728349
 20
62.083556
 30
0.0
 10
41.160597
 20
61.989849
 30
0.0
 10
40.844569
 20
61.802435
 30
0.0
  0
SPLINE
  5
104
100
AcDbEntity
  8
Outline
 62
7
100
AcDbSpline
 70
8
 71
3
 72
8
 73
4
 74
0
 40
0
 40
0
 40
0
 40
0
 40
1
 40
1
 40
1
 40
1
 10
40.844569
 20
61.802435
 30
0.0
 10
40.528538
 20
61.615022
 30
0.0
 10
40.370523
 20
61.295318
 30
0.0
 10
40.370523
 20
60.843322
 30
0.0
  0
SPLINE
  5
105
100
AcDbEntity
  8
Outline
 62
7
100
AcDbSpline
 70
8
 71
3
 72
8
 73
4
 74
0
 40
0
 40
0
 40
0
 40
0
 40
1
 40
1
 40
1
 40
1
 10
40.370523
 20
60.843322
 30
0.0
 10
40.370523
 20
60.483193
 30
0.0
 10
40.488116
 20
60.196561
 30
0.0
 10
40.723301
 20
59.983425
 30
0.0
  0
SPLINE
  5
106
100
AcDbEntity
  8
Outline
 62
7
100
AcDbSpline
 70
8
 71
3
 72
8
 73
4
 74
0
 40
0
 40
0
 40
0
 40
0
 40
1
 40
1
 40
1
 40
1
 10
40.723301
 20
59.983425
 30
0.0
 10
40.962160
 20
59.773963
 30
0.0
 10
41.285540
 20
59.669233
 30
0.0
 10
41.693440
 20
59.669233
 30
0.0
  0
SPLINE
  5
107
100
AcDbEntity
  8
Outline
 62
7
100
AcDbSpline
 70
8
 71
3
 72
8
 73
4
 74
0
 40
0
 40
0
 40
0
 40
0
 40
1
 40
1
 40
1
 40
1
 10
41.693440
 20
59.669233
 30
0.0
 10
42.255679
 20
59.669233
 30
0.0
 10
42.705838
 20
59.867670
 30
0.0
 10
43.043915
 20
60.264544
 30
0.0
  0
SPLINE
  5
108
100
AcDbEntity
  8
Outline
 62
7
100
AcDbSpline
 70
8
 71
3
 72
8
 73
4
 74
0
 40
0
 40
0
 40
0
 40
0
 40
1
 40
1
 40
1
 40
1
 10
43.043915
 20
60.264544
 30
0.0
 10
43.385669
 20
60.665094
 30
0.0
 10
43.556547
 20
61.196099
 30
0.0
 10
43.556547
 20
61.857558
 30
0.0
  0
LWPOLYLINE
  5
109
100
AcDbEntity
  8
Outline
 62
7
100
AcDbPolyline
 90
8
 70
1
 10
33.502380
 20
67.209858
 30
0.0
 10
34.615834
 20
67.209858
 30
0.0
 10
34.615834
 20
59.917281
 30
0.0
 10
38.623169
 20
59.917281
 30
0.0
 10
38.623169
 20
58.980212
 30
0.0
 10
33.502380
 20
58.980212
 30
0.0
 10
33.502380
 20
67.209858
 30
0.0
 10
33.502380
 20
67.209858
 30
0.0
  0
LWPOLYLINE
  5
10a
100
AcDbEntity
  8
Outline
 62
7
100
AcDbPolyline
 90
4
 70
1
 10
43.556547
 20
61.857558
 30
0.0
 10
43.556547
 20
62.083556
 30
0.0
 10
42.547822
 20
62.083556
 30
0.0
 10
42.547822
 20
62.083556
 30
0.0
  0
SPLINE
  5
10b
100
AcDbEntity
  8
Outline
 62
7
100
AcDbSpline
 70
8
 71
3
 72
8
 73
4
 74
0
 40
0
 40
0
 40
0
 40
0
 40
1
 40
1
 40
1
 40
1
 10
43.556547
 20
59.917281
 30
0.0
 10
43.325036
 20
59.542454
 30
0.0
 10
43.036566
 20
59.265009
 30
0.0
 10
42.691137
 20
59.084945
 30
0.0
  0
SPLINE
  5
10c
100
AcDbEntity
  8
Outline
 62
7
100
AcDbSpline
 70
8
 71
3
 72
8
 73
4
 74
0
 40
0
 40
0
 40
0
 40
0
 40
1
 40
1
 40
1
 40
1
 10
42.691137
 20
59.084945
 30
0.0
 10
42.345711
 20
58.908556
 30
0.0
 10
41.923113
 20
58.820362
 30
0.0
 10
41.423344
 20
58.820362
 30
0.0
  0
SPLINE
  5
10d
100
AcDbEntity
  8
Outline
 62
7
100
AcDbSpline
 70
8
 71
3
 72
8
 73
4
 74
0
 40
0
 40
0
 40
0
 40
0
 40
1
 40
1
 40
1
 40
1
 10
41.423344
 20
58.820362
 30
0.0
 10
40.791283
 20
58.820362
 30
0.0
 10
40.287839
 20
58.996751
 30
0.0
 10
39.913012
 20
59.349528
 30
0.0
  0
SPLINE
  5
10e
100
AcDbEntity
  8
Outline
 62
7
100
AcDbSpline
 70
8
 71
3
 72
8
 73
4
 74
0
 40
0
 40
0
 40
0
 40
0
 40
1
 40
1
 40
1
 40
1
 10
39.913012
 20
59.349528
 30
0.0
 10
39.541862
 20
59.705981
 30
0.0
 10
39.356287
 20
60.181863
 30
0.0
 10
39.356287
 20
60.777175
 30
0.0
  0
SPLINE
  5
10f
100
AcDbEntity
  8
Outline
 62
7
100
AcDbSpline
 70
8
 71
3
 72
8
 73
4
 74
0
 40
0
 40
0
 40
0
 40
0
 40
1
 40
1
 40
1
 40
1
 10
39.356287
 20
60.777175
 30
0.0
 10
39.356287
 20
61.471707
 30
0.0
 10
39.587797
 20
61.995362
 30
0.0
 10
40.050819
 20
62.348140
 30
0.0
  0
SPLINE
  5
110
100
AcDbEntity
  8
Outline
 62
7
100
AcDbSpline
 70
8
 71
3
 72
8
 73
4
 74
0
 40
0
 40
0
 40
0
 40
0
 40
1
 40
1
 40
1
 40
1
 10
40.050819
 20
62.348140
 30
0.0
 10
40.517513
 20
62.700917
 30
0.0
 10
41.212044
 20
62.877306
 30
0.0
 10
42.134412
 20
62.877306
 30
0.0
  0
LWPOLYLINE
  5
111
100
AcDbEntity
  8
Outline
 62
7
100
AcDbPolyline
 90
4
 70
1
 10
44.570783
 20
62.502478
 30
0.0
 10
44.570783
 20
58.980212
 30
0.0
 10
43.556547
 20
58.980212
 30
0.0
 10
43.556547
 20
59.917281
 30
0.0
  0
SPLINE
  5
112
100
AcDbEntity
  8
Outline
 62
7
100
AcDbSpline
 70
8
 71
3
 72
8
 73
4
 74
0
 40
0
 40
0
 40
0
 40
0
 40
1
 40
1
 40
1
 40
1
 10
43.556547
 20
62.976524
 30
0.0
 10
43.556547
 20
63.443220
 30
0.0
 10
43.402207
 20
63.803347
 30
0.0
 10
43.093527
 20
64.056905
 30
0.0
  0
SPLINE
  5
113
100
AcDbEntity
  8
Outline
 62
7
100
AcDbSpline
 70
8
 71
3
 72
8
 73
4
 74
0
 40
0
 40
0
 40
0
 40
0
 40
1
 40
1
 40
1
 40
1
 10
43.093527
 20
64.056905
 30
0.0
 10
42.788520
 20
64.314139
 30
0.0
 10
42.358572
 20
64.442756
 30
0.0
 10
41.803681
 20
64.442756
 30
0.0
  0
SPLINE
  5
114
100
AcDbEntity
  8
Outline
 62
7
100
AcDbSpline
 70
8
 71
3
 72
8
 73
4
 74
0
 40
0
 40
0
 40
0
 40
0
 40
1
 40
1
 40
1
 40
1
 10
41.803681
 20
64.442756
 30
0.0
 10
41.450903
 20
64.442756
 30
0.0
 10
41.107313
 20
64.400496
 30
0.0
 10
40.772910
 20
64.315976
 30
0.0
  0
SPLINE
  5
115
100
AcDbEntity
  8
Outline
 62
7
100
AcDbSpline
 70
8
 71
3
 72
8
 73
4
 74
0
 40
0
 40
0
 40
0
 40
0
 40
1
 40
1
 40
1
 40
1
 10
40.772910
 20
64.315976
 30
0.0
 10
40.438507
 20
64.231456
 30
0.0
 10
40.116964
 20
64.104677
 30
0.0
 10
39.808283
 20
63.935640
 30
0.0
  0
LWPOLYLINE
  5
116
100
AcDbEntity
  8
Outline
 62
7
100
AcDbPolyline
 90
3
 70
1
 10
42.134412
 20
62.877306
 30
0.0
 10
43.556547
 20
62.877306
 30
0.0
 10
43.556547
 20
62.976524
 30
0.0
  0
SPLINE
  5
117
100
AcDbEntity
  8
Outline
 62
7
100
AcDbSpline
 70
8
 71
3
 72
8
 73
4
 74
0
 40
0
 40
0
 40
0
 40
0
 40
1
 40
1
 40
1
 40
1
 10
39.808283
 20
64.872705
 30
0.0
 10
40.179435
 20
65.016021
 30
0.0
 10
40.539563
 20
65.122589
 30
0.0
 10
40.888666
 20
65.192409
 30
0.0
  0
SPLINE
  5
118
100
AcDbEntity
  8
Outline
 62
7
100
AcDbSpline
 70
8
 71
3
 72
8
 73
4
 74
0
 40
0
 40
0
 40
0
 40
0
 40
1
 40
1
 40
1
 40
1
 10
40.888666
 20
65.192409
 30
0.0
 10
41.237767
 20
65.265905
 30
0.0
 10
41.577683
 20
65.302653
 30
0.0
 10
41.908414
 20
65.302653
 30
0.0
  0
SPLINE
  5
119
100
AcDbEntity
  8
Outline
 62
7
100
AcDbSpline
 70
8
 71
3
 72
8
 73
4
 74
0
 40
0
 40
0
 40
0
 40
0
 40
1
 40
1
 40
1
 40
1
 10
41.908414
 20
65.302653
 30
0.0
 10
42.801382
 20
65.302653
 30
0.0
 10
43.468352
 20
65.071143
 30
0.0
 10
43.909324
 20
64.608121
 30
0.0
  0
SPLINE
  5
11a
100
AcDbEntity
  8
Outline
 62
7
100
AcDbSpline
 70
8
 71
3
 72
8
 73
4
 74
0
 40
0
 40
0
 40
0
 40
0
 40
1
 40
1
 40
1
 40
1
 10
43.909324
 20
64.608121
 30
0.0
 10
44.350297
 20
64.145100
 30
0.0
 10
44.570783
 20
63.443219
 30
0.0
 10
44.570783
 20
62.502478
 30
0.0
  0
LWPOLYLINE
  5
11b
100
AcDbEntity
  8
Outline
 62
7
100
AcDbPolyline
 90
2
 70
1
 10
39.808283
 20
63.935640
 30
0.0
 10
39.808283
 20
64.872705
 30
0.0
  0
LWPOLYLINE
  5
11c
100
AcDbEntity
  8
Outline
 62
7
100
AcDbPolyline
 90
2
 70
1
 10
44.570783
 20
62.502478
 30
0.0
 10
44.570783
 20
62.502478
 30
0.0
  0
SPLINE
  5
11d
100
AcDbEntity
  8
Outline
 62
7
100
AcDbSpline
 70
8
 71
3
 72
8
 73
4
 74
0
 40
0
 40
0
 40
0
 40
0
 40
1
 40
1
 40
1
 40
1
 10
50.601078
 20
64.012808
 30
0.0
 10
50.314446
 20
64.159798
 30
0.0
 10
50.016790
 20
64.270042
 30
0.0
 10
49.708110
 20
64.343538
 30
0.0
  0
SPLINE
  5
11e
100
AcDbEntity
  8
Outline
 62
7
100
AcDbSpline
 70
8
 71
3
 72
8
 73
4
 74
0
 40
0
 40
0
 40
0
 40
0
 40
1
 40
1
 40
1
 40
1
 10
49.708110
 20
64.343538
 30
0.0
 10
49.399429
 20
64.417033
 30
0.0
 10
49.079724
 20
64.453780
 30
0.0
 10
48.748995
 20
64.453780
 30
0.0
  0
SPLINE
  5
11f
100
AcDbEntity
  8
Outline
 62
7
100
AcDbSpline
 70
8
 71
3
 72
8
 73
4
 74
0
 40
0
 40
0
 40
0
 40
0
 40
1
 40
1
 40
1
 40
1
 10
48.748995
 20
64.453780
 30
0.0
 10
48.245552
 20
64.453780
 30
0.0
 10
47.867051
 20
64.376610
 30
0.0
 10
47.613491
 20
64.222270
 30
0.0
  0
SPLINE
  5
120
100
AcDbEntity
  8
Outline
 62
7
100
AcDbSpline
 70
8
 71
3
 72
8
 73
4
 74
0
 40
0
 40
0
 40
0
 40
0
 40
1
 40
1
 40
1
 40
1
 10
47.613491
 20
64.222270
 30
0.0
 10
47.363608
 20
64.067930
 30
0.0
 10
47.238666
 20
63.836420
 30
0.0
 10
47.238666
 20
63.527738
 30
0.0
  0
SPLINE
  5
121
100
AcDbEntity
  8
Outline
 62
7
100
AcDbSpline
 70
8
 71
3
 72
8
 73
4
 74
0
 40
0
 40
0
 40
0
 40
0
 40
1
 40
1
 40
1
 40
1
 10
47.238666
 20
63.527738
 30
0.0
 10
47.238666
 20
63.292553
 30
0.0
 10
47.328698
 20
63.106978
 30
0.0
 10
47.508761
 20
62.971012
 30
0.0
  0
SPLINE
  5
122
100
AcDbEntity
  8
Outline
 62
7
100
AcDbSpline
 70
8
 71
3
 72
8
 73
4
 74
0
 40
0
 40
0
 40
0
 40
0
 40
1
 40
1
 40
1
 40
1
 10
47.508761
 20
62.971012
 30
0.0
 10
47.688825
 20
62.838720
 30
0.0
 10
48.050789
 20
62.711940
 30
0.0
 10
48.594653
 20
62.590673
 30
0.0
  0
LWPOLYLINE
  5
123
100
AcDbEntity
  8
Outline
 62
7
100
AcDbPolyline
 90
2
 70
1
 10
50.601078
 20
64.971923
 30
0.0
 10
50.601078
 20
64.012808
 30
0.0
  0
SPLINE
  5
124
100
AcDbEntity
  8
Outline
 62
7
100
AcDbSpline
 70
8
 71
3
 72
8
 73
4
 74
0
 40
0
 40
0
 40
0
 40
0
 40
1
 40
1
 40
1
 40
1
 10
48.941919
 20
62.513502
 30
0.0
 10
49.662175
 20
62.359162
 30
0.0
 10
50.172968
 20
62.140514
 30
0.0
 10
50.474299
 20
61.857558
 30
0.0
  0
SPLINE
  5
125
100
AcDbEntity
  8
Outline
 62
7
100
AcDbSpline
 70
8
 71
3
 72
8
 73
4
 74
0
 40
0
 40
0
 40
0
 40
0
 40
1
 40
1
 40
1
 40
1
 10
50.474299
 20
61.857558
 30
0.0
 10
50.779304
 20
61.578275
 30
0.0
 10
50.931806
 20
61.186912
 30
0.0
 10
50.931806
 20
60.683469
 30
0.0
  0
SPLINE
  5
126
100
AcDbEntity
  8
Outline
 62
7
100
AcDbSpline
 70
8
 71
3
 72
8
 73
4
 74
0
 40
0
 40
0
 40
0
 40
0
 40
1
 40
1
 40
1
 40
1
 10
50.931806
 20
60.683469
 30
0.0
 10
50.931806
 20
60.110204
 30
0.0
 10
50.703971
 20
59.656370
 30
0.0
 10
50.248301
 20
59.321967
 30
0.0
  0
SPLINE
  5
127
100
AcDbEntity
  8
Outline
 62
7
100
AcDbSpline
 70
8
 71
3
 72
8
 73
4
 74
0
 40
0
 40
0
 40
0
 40
0
 40
1
 40
1
 40
1
 40
1
 10
50.248301
 20
59.321967
 30
0.0
 10
49.796303
 20
58.987563
 30
0.0
 10
49.173429
 20
58.820362
 30
0.0
 10
48.379679
 20
58.820362
 30
0.0
  0
SPLINE
  5
128
100
AcDbEntity
  8
Outline
 62
7
100
AcDbSpline
 70
8
 71
3
 72
8
 73
4
 74
0
 40
0
 40
0
 40
0
 40
0
 40
1
 40
1
 40
1
 40
1
 10
48.379679
 20
58.820362
 30
0.0
 10
48.048950
 20
58.820362
 30
0.0
 10
47.703523
 20
58.853434
 30
0.0
 10
47.343396
 20
58.919580
 30
0.0
  0
SPLINE
  5
129
100
AcDbEntity
  8
Outline
 62
7
100
AcDbSpline
 70
8
 71
3
 72
8
 73
4
 74
0
 40
0
 40
0
 40
0
 40
0
 40
1
 40
1
 40
1
 40
1
 10
47.343396
 20
58.919580
 30
0.0
 10
46.986944
 20
58.982051
 30
0.0
 10
46.610279
 20
59.077594
 30
0.0
 10
46.213403
 20
59.206210
 30
0.0
  0
LWPOLYLINE
  5
12a
100
AcDbEntity
  8
Outline
 62
7
100
AcDbPolyline
 90
2
 70
1
 10
48.594653
 20
62.590673
 30
0.0
 10
48.941919
 20
62.513502
 30
0.0
  0
SPLINE
  5
12b
100
AcDbEntity
  8
Outline
 62
7
100
AcDbSpline
 70
8
 71
3
 72
8
 73
4
 74
0
 40
0
 40
0
 40
0
 40
0
 40
1
 40
1
 40
1
 40
1
 10
46.213403
 20
60.253520
 30
0.0
 10
46.588230
 20
60.058759
 30
0.0
 10
46.957544
 20
59.911768
 30
0.0
 10
47.321346
 20
59.812548
 30
0.0
  0
SPLINE
  5
12c
100
AcDbEntity
  8
Outline
 62
7
100
AcDbSpline
 70
8
 71
3
 72
8
 73
4
 74
0
 40
0
 40
0
 40
0
 40
0
 40
1
 40
1
 40
1
 40
1
 10
47.321346
 20
59.812548
 30
0.0
 10
47.685149
 20
59.717004
 30
0.0
 10
48.045277
 20
59.669233
 30
0.0
 10
48.401729
 20
59.669233
 30
0.0
  0
SPLINE
  5
12d
100
AcDbEntity
  8
Outline
 62
7
100
AcDbSpline
 70
8
 71
3
 72
8
 73
4
 74
0
 40
0
 40
0
 40
0
 40
0
 40
1
 40
1
 40
1
 40
1
 10
48.401729
 20
59.669233
 30
0.0
 10
48.879449
 20
59.669233
 30
0.0
 10
49.246925
 20
59.750077
 30
0.0
 10
49.504160
 20
59.911766
 30
0.0
  0
SPLINE
  5
12e
100
AcDbEntity
  8
Outline
 62
7
100
AcDbSpline
 70
8
 71
3
 72
8
 73
4
 74
0
 40
0
 40
0
 40
0
 40
0
 40
1
 40
1
 40
1
 40
1
 10
49.504160
 20
59.911766
 30
0.0
 10
49.761394
 20
60.077131
 30
0.0
 10
49.890011
 20
60.308642
 30
0.0
 10
49.890011
 20
60.606298
 30
0.0
  0
SPLINE
  5
12f
100
AcDbEntity
  8
Outline
 62
7
100
AcDbSpline
 70
8
 71
3
 72
8
 73
4
 74
0
 40
0
 40
0
 40
0
 40
0
 40
1
 40
1
 40
1
 40
1
 10
49.890011
 20
60.606298
 30
0.0
 10
49.890011
 20
60.881907
 30
0.0
 10
49.796304
 20
61.093206
 30
0.0
 10
49.608890
 20
61.240197
 30
0.0
  0
SPLINE
  5
130
100
AcDbEntity
  8
Outline
 62
7
100
AcDbSpline
 70
8
 71
3
 72
8
 73
4
 74
0
 40
0
 40
0
 40
0
 40
0
 40
1
 40
1
 40
1
 40
1
 10
49.608890
 20
61.240197
 30
0.0
 10
49.425152
 20
61.387188
 30
0.0
 10
49.019090
 20
61.528666
 30
0.0
 10
48.390706
 20
61.664631
 30
0.0
  0
LWPOLYLINE
  5
131
100
AcDbEntity
  8
Outline
 62
7
100
AcDbPolyline
 90
2
 70
1
 10
46.213403
 20
59.206210
 30
0.0
 10
46.213403
 20
60.253520
 30
0.0
  0
SPLINE
  5
132
100
AcDbEntity
  8
Outline
 62
7
100
AcDbSpline
 70
8
 71
3
 72
8
 73
4
 74
0
 40
0
 40
0
 40
0
 40
0
 40
1
 40
1
 40
1
 40
1
 10
48.037928
 20
61.747314
 30
0.0
 10
47.409541
 20
61.879606
 30
0.0
 10
46.955707
 20
62.081719
 30
0.0
 10
46.676426
 20
62.353651
 30
0.0
  0
SPLINE
  5
133
100
AcDbEntity
  8
Outline
 62
7
100
AcDbSpline
 70
8
 71
3
 72
8
 73
4
 74
0
 40
0
 40
0
 40
0
 40
0
 40
1
 40
1
 40
1
 40
1
 10
46.676426
 20
62.353651
 30
0.0
 10
46.397142
 20
62.629258
 30
0.0
 10
46.257501
 20
63.005921
 30
0.0
 10
46.257501
 20
63.483641
 30
0.0
  0
SPLINE
  5
134
100
AcDbEntity
  8
Outline
 62
7
100
AcDbSpline
 70
8
 71
3
 72
8
 73
4
 74
0
 40
0
 40
0
 40
0
 40
0
 40
1
 40
1
 40
1
 40
1
 10
46.257501
 20
63.483641
 30
0.0
 10
46.257501
 20
64.064255
 30
0.0
 10
46.463288
 20
64.512577
 30
0.0
 10
46.874862
 20
64.828608
 30
0.0
  0
SPLINE
  5
135
100
AcDbEntity
  8
Outline
 62
7
100
AcDbSpline
 70
8
 71
3
 72
8
 73
4
 74
0
 40
0
 40
0
 40
0
 40
0
 40
1
 40
1
 40
1
 40
1
 10
46.874862
 20
64.828608
 30
0.0
 10
47.286436
 20
65.144638
 30
0.0
 10
47.870724
 20
65.302653
 30
0.0
 10
48.627727
 20
65.302653
 30
0.0
  0
SPLINE
  5
136
100
AcDbEntity
  8
Outline
 62
7
100
AcDbSpline
 70
8
 71
3
 72
8
 73
4
 74
0
 40
0
 40
0
 40
0
 40
0
 40
1
 40
1
 40
1
 40
1
 10
48.627727
 20
65.302653
 30
0.0
 10
49.002554
 20
65.302653
 30
0.0
 10
49.355332
 20
65.275093
 30
0.0
 10
49.686060
 20
65.219971
 30
0.0
  0
SPLINE
  5
137
100
AcDbEntity
  8
Outline
 62
7
100
AcDbSpline
 70
8
 71
3
 72
8
 73
4
 74
0
 40
0
 40
0
 40
0
 40
0
 40
1
 40
1
 40
1
 40
1
 10
49.686060
 20
65.219971
 30
0.0
 10
50.016789
 20
65.164849
 30
0.0
 10
50.321795
 20
65.082166
 30
0.0
 10
50.601078
 20
64.971923
 30
0.0
  0
LWPOLYLINE
  5
138
100
AcDbEntity
  8
Outline
 62
7
100
AcDbPolyline
 90
2
 70
1
 10
48.390706
 20
61.664631
 30
0.0
 10
48.037928
 20
61.747314
 30
0.0
  0
LWPOLYLINE
  5
139
100
AcDbEntity
  8
Outline
 62
7
100
AcDbPolyline
 90
2
 70
1
 10
50.601078
 20
64.971923
 30
0.0
 10
50.601078
 20
64.971923
 30
0.0
  0
SPLINE
  5
13a
100
AcDbEntity
  8
Outline
 62
7
100
AcDbSpline
 70
8
 71
3
 72
8
 73
4
 74
0
 40
0
 40
0
 40
0
 40
0
 40
1
 40
1
 40
1
 40
1
 10
53.169741
 20
61.824485
 30
0.0
 10
53.213839
 20
61.126278
 30
0.0
 10
53.423301
 20
60.593437
 30
0.0
 10
53.798126
 20
60.225961
 30
0.0
  0
SPLINE
  5
13b
100
AcDbEntity
  8
Outline
 62
7
100
AcDbSpline
 70
8
 71
3
 72
8
 73
4
 74
0
 40
0
 40
0
 40
0
 40
0
 40
1
 40
1
 40
1
 40
1
 10
53.798126
 20
60.225961
 30
0.0
 10
54.176627
 20
59.862158
 30
0.0
 10
54.702119
 20
59.680256
 30
0.0
 10
55.374602
 20
59.680256
 30
0.0
  0
SPLINE
  5
13c
100
AcDbEntity
  8
Outline
 62
7
100
AcDbSpline
 70
8
 71
3
 72
8
 73
4
 74
0
 40
0
 40
0
 40
0
 40
0
 40
1
 40
1
 40
1
 40
1
 10
55.374602
 20
59.680256
 30
0.0
 10
55.764127
 20
59.680256
 30
0.0
 10
56.140791
 20
59.728028
 30
0.0
 10
56.504594
 20
59.823571
 30
0.0
  0
SPLINE
  5
13d
100
AcDbEntity
  8
Outline
 62
7
100
AcDbSpline
 70
8
 71
3
 72
8
 73
4
 74
0
 40
0
 40
0
 40
0
 40
0
 40
1
 40
1
 40
1
 40
1
 10
56.504594
 20
59.823571
 30
0.0
 10
56.872070
 20
59.919117
 30
0.0
 10
57.235872
 20
60.062433
 30
0.0
 10
57.595999
 20
60.253520
 30
0.0
  0
LWPOLYLINE
  5
13e
100
AcDbEntity
  8
Outline
 62
7
100
AcDbPolyline
 90
3
 70
1
 10
57.833023
 20
62.320578
 30
0.0
 10
57.833023
 20
61.824485
 30
0.0
 10
53.169741
 20
61.824485
 30
0.0
  0
SPLINE
  5
13f
100
AcDbEntity
  8
Outline
 62
7
100
AcDbSpline
 70
8
 71
3
 72
8
 73
4
 74
0
 40
0
 40
0
 40
0
 40
0
 40
1
 40
1
 40
1
 40
1
 10
57.595999
 20
59.294405
 30
0.0
 10
57.232197
 20
59.140065
 30
0.0
 10
56.859209
 20
59.022472
 30
0.0
 10
56.477033
 20
58.941627
 30
0.0
  0
SPLINE
  5
140
100
AcDbEntity
  8
Outline
 62
7
100
AcDbSpline
 70
8
 71
3
 72
8
 73
4
 74
0
 40
0
 40
0
 40
0
 40
0
 40
1
 40
1
 40
1
 40
1
 10
56.477033
 20
58.941627
 30
0.0
 10
56.094857
 20
58.860784
 30
0.0
 10
55.707169
 20
58.820362
 30
0.0
 10
55.313969
 20
58.820362
 30
0.0
  0
SPLINE
  5
141
100
AcDbEntity
  8
Outline
 62
7
100
AcDbSpline
 70
8
 71
3
 72
8
 73
4
 74
0
 40
0
 40
0
 40
0
 40
0
 40
1
 40
1
 40
1
 40
1
 10
55.313969
 20
58.820362
 30
0.0
 10
54.329131
 20
58.820362
 30
0.0
 10
53.548242
 20
59.106993
 30
0.0
 10
52.971305
 20
59.680256
 30
0.0
  0
SPLINE
  5
142
100
AcDbEntity
  8
Outline
 62
7
100
AcDbSpline
 70
8
 71
3
 72
8
 73
4
 74
0
 40
0
 40
0
 40
0
 40
0
 40
1
 40
1
 40
1
 40
1
 10
52.971305
 20
59.680256
 30
0.0
 10
52.398040
 20
60.253521
 30
0.0
 10
52.111408
 20
61.028897
 30
0.0
 10
52.111408
 20
62.006385
 30
0.0
  0
SPLINE
  5
143
100
AcDbEntity
  8
Outline
 62
7
100
AcDbSpline
 70
8
 71
3
 72
8
 73
4
 74
0
 40
0
 40
0
 40
0
 40
0
 40
1
 40
1
 40
1
 40
1
 10
52.111408
 20
62.006385
 30
0.0
 10
52.111408
 20
63.016946
 30
0.0
 10
52.383341
 20
63.818045
 30
0.0
 10
52.927208
 20
64.409683
 30
0.0
  0
SPLINE
  5
144
100
AcDbEntity
  8
Outline
 62
7
100
AcDbSpline
 70
8
 71
3
 72
8
 73
4
 74
0
 40
0
 40
0
 40
0
 40
0
 40
1
 40
1
 40
1
 40
1
 10
52.927208
 20
64.409683
 30
0.0
 10
53.474747
 20
65.004996
 30
0.0
 10
54.211538
 20
65.302653
 30
0.0
 10
55.137581
 20
65.302653
 30
0.0
  0
SPLINE
  5
145
100
AcDbEntity
  8
Outline
 62
7
100
AcDbSpline
 70
8
 71
3
 72
8
 73
4
 74
0
 40
0
 40
0
 40
0
 40
0
 40
1
 40
1
 40
1
 40
1
 10
55.137581
 20
65.302653
 30
0.0
 10
55.968078
 20
65.302653
 30
0.0
 10
56.624023
 20
65.034395
 30
0.0
 10
57.105417
 20
64.497877
 30
0.0
  0
SPLINE
  5
146
100
AcDbEntity
  8
Outline
 62
7
100
AcDbSpline
 70
8
 71
3
 72
8
 73
4
 74
0
 40
0
 40
0
 40
0
 40
0
 40
1
 40
1
 40
1
 40
1
 10
57.105417
 20
64.497877
 30
0.0
 10
57.590488
 20
63.965036
 30
0.0
 10
57.833023
 20
63.239269
 30
0.0
 10
57.833023
 20
62.320578
 30
0.0
  0
LWPOLYLINE
  5
147
100
AcDbEntity
  8
Outline
 62
7
100
AcDbPolyline
 90
2
 70
1
 10
57.595999
 20
60.253520
 30
0.0
 10
57.595999
 20
59.294405
 30
0.0
  0
SPLINE
  5
148
100
AcDbEntity
  8
Outline
 62
7
100
AcDbSpline
 70
8
 71
3
 72
8
 73
4
 74
0
 40
0
 40
0
 40
0
 40
0
 40
1
 40
1
 40
1
 40
1
 10
56.818787
 20
62.618235
 30
0.0
 10
56.811430
 20
63.173125
 30
0.0
 10
56.655252
 20
63.615934
 30
0.0
 10
56.350253
 20
63.946663
 30
0.0
  0
SPLINE
  5
149
100
AcDbEntity
  8
Outline
 62
7
100
AcDbSpline
 70
8
 71
3
 72
8
 73
4
 74
0
 40
0
 40
0
 40
0
 40
0
 40
1
 40
1
 40
1
 40
1
 10
56.350253
 20
63.946663
 30
0.0
 10
56.048922
 20
64.277392
 30
0.0
 10
55.648373
 20
64.442756
 30
0.0
 10
55.148604
 20
64.442756
 30
0.0
  0
SPLINE
  5
14a
100
AcDbEntity
  8
Outline
 62
7
100
AcDbSpline
 70
8
 71
3
 72
8
 73
4
 74
0
 40
0
 40
0
 40
0
 40
0
 40
1
 40
1
 40
1
 40
1
 10
55.148604
 20
64.442756
 30
0.0
 10
54.582690
 20
64.442756
 30
0.0
 10
54.128856
 20
64.282904
 30
0.0
 10
53.787102
 20
63.963199
 30
0.0
  0
SPLINE
  5
14b
100
AcDbEntity
  8
Outline
 62
7
100
AcDbSpline
 70
8
 71
3
 72
8
 73
4
 74
0
 40
0
 40
0
 40
0
 40
0
 40
1
 40
1
 40
1
 40
1
 10
53.787102
 20
63.963199
 30
0.0
 10
53.449024
 20
63.643493
 30
0.0
 10
53.254262
 20
63.193335
 30
0.0
 10
53.202815
 20
62.612723
 30
0.0
  0
LWPOLYLINE
  5
14c
100
AcDbEntity
  8
Outline
 62
7
100
AcDbPolyline
 90
2
 70
1
 10
57.833023
 20
62.320578
 30
0.0
 10
57.833023
 20
62.320578
 30
0.0
  0
SPLINE
  5
14d
100
AcDbEntity
  8
Outline
 62
7
100
AcDbSpline
 70
8
 71
3
 72
8
 73
4
 74
0
 40
0
 40
0
 40
0
 40
0
 40
1
 40
1
 40
1
 40
1
 10
63.075081
 20
64.205735
 30
0.0
 10
62.961163
 20
64.271880
 30
0.0
 10
62.836220
 20
64.319652
 30
0.0
 10
62.700253
 20
64.349050
 30
0.0
  0
SPLINE
  5
14e
100
AcDbEntity
  8
Outline
 62
7
100
AcDbSpline
 70
8
 71
3
 72
8
 73
4
 74
0
 40
0
 40
0
 40
0
 40
0
 40
1
 40
1
 40
1
 40
1
 10
62.700253
 20
64.349050
 30
0.0
 10
62.567962
 20
64.382123
 30
0.0
 10
62.420971
 20
64.398659
 30
0.0
 10
62.259281
 20
64.398659
 30
0.0
  0
SPLINE
  5
14f
100
AcDbEntity
  8
Outline
 62
7
100
AcDbSpline
 70
8
 71
3
 72
8
 73
4
 74
0
 40
0
 40
0
 40
0
 40
0
 40
1
 40
1
 40
1
 40
1
 10
62.259281
 20
64.398659
 30
0.0
 10
61.686018
 20
64.398659
 30
0.0
 10
61.245045
 20
64.211246
 30
0.0
 10
60.936364
 20
63.836419
 30
0.0
  0
SPLINE
  5
150
100
AcDbEntity
  8
Outline
 62
7
100
AcDbSpline
 70
8
 71
3
 72
8
 73
4
 74
0
 40
0
 40
0
 40
0
 40
0
 40
1
 40
1
 40
1
 40
1
 10
60.936364
 20
63.836419
 30
0.0
 10
60.631359
 20
63.465268
 30
0.0
 10
60.478856
 20
62.930590
 30
0.0
 10
60.478856
 20
62.232383
 30
0.0
  0
LWPOLYLINE
  5
151
100
AcDbEntity
  8
Outline
 62
7
100
AcDbPolyline
 90
3
 70
1
 10
53.202815
 20
62.612723
 30
0.0
 10
56.818787
 20
62.618226
 30
0.0
 10
56.818787
 20
62.618235
 30
0.0
  0
SPLINE
  5
152
100
AcDbEntity
  8
Outline
 62
7
100
AcDbSpline
 70
8
 71
3
 72
8
 73
4
 74
0
 40
0
 40
0
 40
0
 40
0
 40
1
 40
1
 40
1
 40
1
 10
60.478856
 20
64.194711
 30
0.0
 10
60.691992
 20
64.569536
 30
0.0
 10
60.969438
 20
64.846980
 30
0.0
 10
61.311192
 20
65.027044
 30
0.0
  0
SPLINE
  5
153
100
AcDbEntity
  8
Outline
 62
7
100
AcDbSpline
 70
8
 71
3
 72
8
 73
4
 74
0
 40
0
 40
0
 40
0
 40
0
 40
1
 40
1
 40
1
 40
1
 10
61.311192
 20
65.027044
 30
0.0
 10
61.652944
 20
65.210784
 30
0.0
 10
62.068193
 20
65.302653
 30
0.0
 10
62.556938
 20
65.302653
 30
0.0
  0
SPLINE
  5
154
100
AcDbEntity
  8
Outline
 62
7
100
AcDbSpline
 70
8
 71
3
 72
8
 73
4
 74
0
 40
0
 40
0
 40
0
 40
0
 40
1
 40
1
 40
1
 40
1
 10
62.556938
 20
65.302653
 30
0.0
 10
62.626757
 20
65.302653
 30
0.0
 10
62.703927
 20
65.297141
 30
0.0
 10
62.788447
 20
65.286115
 30
0.0
  0
SPLINE
  5
155
100
AcDbEntity
  8
Outline
 62
7
100
AcDbSpline
 70
8
 71
3
 72
8
 73
4
 74
0
 40
0
 40
0
 40
0
 40
0
 40
1
 40
1
 40
1
 40
1
 10
62.788447
 20
65.286115
 30
0.0
 10
62.872967
 20
65.278759
 30
0.0
 10
62.966674
 20
65.265897
 30
0.0
 10
63.069569
 20
65.247530
 30
0.0
  0
LWPOLYLINE
  5
156
100
AcDbEntity
  8
Outline
 62
7
100
AcDbPolyline
 90
6
 70
1
 10
60.478856
 20
62.232383
 30
0.0
 10
60.478856
 20
58.980212
 30
0.0
 10
59.459108
 20
58.980212
 30
0.0
 10
59.459108
 20
65.153824
 30
0.0
 10
60.478856
 20
65.153824
 30
0.0
 10
60.478856
 20
64.194711
 30
0.0
  0
LWPOLYLINE
  5
157
100
AcDbEntity
  8
Outline
 62
7
100
AcDbPolyline
 90
3
 70
1
 10
63.069569
 20
65.247530
 30
0.0
 10
63.075072
 20
64.205735
 30
0.0
 10
63.075081
 20
64.205735
 30
0.0
  0
ENDSEC
  0
SECTION
  2
OBJECTS
  0
DICTIONARY
  5
C
330
0
100
AcDbDictionary
  3
ACAD_GROUP
350
D
  3
ACAD_MLINESTYLE
350
17
  0
DICTIONARY
  5
D
330
C
100
AcDbDictionary
  0
DICTIONARY
  5
1A
330
C
100
AcDbDictionary
  0
DICTIONARY
  5
17
330
C
100
AcDbDictionary
  3
STANDARD
350
18
  0
DICTIONARY
  5
19
330
C
100
AcDbDictionary
  0
ENDSEC
  0
EOF
